<svg aria-label="ABC Health Logo" fill="none" height="38" viewBox="0 0 153 38" width="153" xmlns="http://www.w3.org/2000/svg"><g fill="#1ad3b2"><path d="m13.7898 1.14893h6.89488v6.89488h-6.89488z"/><path d="m20.6844 8.04407h6.89488v6.89488h-6.89488z"/><path d="m27.5796 14.9386h6.89488v6.89488h-6.89488z"/><path d="m20.6844 21.8333h6.89488v6.89488h-6.89488z"/></g><g fill="#13126c"><path d="m13.7898 28.7284h6.89488v6.89488h-6.89488z"/><path d="m6.89465 21.8333h6.89488v6.89488h-6.89488z"/><path d="m0 14.9386h6.89488v6.89488h-6.89488z"/><path d="m6.89465 8.04407h6.89488v6.89488h-6.89488z"/><path clip-rule="evenodd" d="m131.828 15.2963v-.7619c-.782-.0586-1.094-.1367-1.094-.7619v-13.7725h-.606l-4.083.898633v.586067l1.075.54699v11.74081c0 .6252-.313.7033-1.094.7619v.7619zm-52.0929.1953c1.9145 0 3.6532-.4689 4.7862-1.2698l.3321-3.8876h-.9768c-.7814 2.9694-2.0317 4.122-3.6531 4.122-2.4029 0-3.6531-2.6177-3.6531-6.19274 0-3.3015 1.0158-5.89972 3.4577-5.89972 1.8168 0 2.8522 1.26981 3.3406 3.59453h.9573l-.0586-3.41871c-1.1136-.74235-2.5983-1.1526-4.3565-1.1526-4.0634 0-7.3844 2.83265-7.3844 7.42349 0 4.12195 2.7545 6.68115 7.2086 6.68115zm-31.8672-.1953v-.8205c-1.055-.0586-1.602-.2735-1.602-.9181 0-.1954.0587-.4298.1563-.7229l.6642-1.7777h4.9816l.7033 1.7973c.0976.293.1563.5274.1563.7228 0 .6642-.547.8596-1.5238.8986v.8205h6.896v-.8205c-.5665-.0781-.9572-.2149-1.1526-.7228l-4.8643-12.20968h-4.0829l.6642 1.62145-4.0634 10.58823c-.2149.5275-.6056.6447-1.1331.7228v.8205zm3.7702-5.2939h-4.1611l2.0317-5.41134zm19.9287 1.5823c0 2.5201-1.895 3.7117-5.4895 3.7117h-7.2867v-.8205c1.3088-.1367 1.4261-.293 1.4261-1.3089v-9.45513c0-1.01585-.1173-1.17213-1.4261-1.30888v-.82049h7.0914c3.028 0 4.8057 1.15259 4.8057 3.41871 0 1.97308-1.7777 2.96939-3.6727 3.16475 2.5982.07814 4.5518 1.26981 4.5518 3.41874zm-7.0328-3.88769h-.4884v-5.19644h.4689c1.5628 0 2.5396.80095 2.5396 2.53961 0 1.7582-.8596 2.65683-2.5201 2.65683zm.8791 6.68119h.1563c1.3479 0 2.2856-.8987 2.2856-2.8522 0-1.77774-.9767-2.77405-2.9498-2.77405h-.8596v4.29785c0 1.0549.3516 1.3284 1.3675 1.3284zm30.2673.0978v.8204h-6.6616v-.8204c1.3089-.1368 1.4261-.2931 1.4261-1.3089v-9.45521c0-1.01585-.1172-1.17213-1.4261-1.30888v-.82049h6.6616v.82049c-1.2894.13675-1.4066.29303-1.4066 1.30888v4.02431h4.962v-4.02431c0-1.01585-.1172-1.17213-1.4261-1.30888v-.82049h6.6613v.82049c-1.289.13675-1.406.29303-1.406 1.30888l.001 9.59451c.013.8914.177 1.0393 1.405 1.1696v.8204h-6.6613v-.8204c1.3089-.1368 1.4261-.2931 1.4261-1.3089v-4.2197h-4.962l.0009 4.359c.0129.8914.1777 1.0393 1.4057 1.1696zm14.5166 1.0158c2.462 0 3.966-1.4261 4.494-3.575l-.372-.2344c-.742.9768-1.66 1.4261-2.91 1.4261-1.778 0-3.067-1.4456-3.028-3.77036h6.231v-.48839c0-2.48101-1.445-4.27827-4.278-4.27827-2.813 0-5.216 2.22704-5.216 5.70432 0 3.282 2.188 5.216 5.079 5.216zm-1.796-7.05245h3.125c0-1.89494-.371-3.04754-1.426-3.04754-1.074 0-1.602 1.23074-1.699 3.04754zm14.868 7.05245c1.094 0 1.934-.4102 2.579-1.0549l-.137-.5275c-.137.0587-.391.1173-.664.1173-.469 0-.528-.4103-.528-.8791v-5.17695c0-2.53961-1.641-3.39917-4.376-3.39917-2.363 0-4.2.82049-4.2 2.59822 0 .70328.391 1.17213.957 1.36748l2.169-.29303c-.098-.46885-.176-.91817-.176-1.36749 0-.91816.293-1.5433 1.055-1.5433s1.016.6056 1.016 1.50423v1.99262l-3.106 1.09399c-1.387.4884-2.579 1.1917-2.579 2.8913 0 1.68 1.153 2.6177 2.794 2.6177 1.445 0 2.383-.7619 2.949-1.5824.293 1.0354 1.114 1.641 2.247 1.641zm-4.512-3.6728c0 .9963.371 1.7386 1.347 1.7386.313 0 .547-.0976.86-.2734v-3.61412l-1.074.41022c-.684.254-1.133.6252-1.133 1.7387zm20.888 1.7584c-.743 1.2112-1.837 1.9144-3.399 1.9144-1.798 0-3.048-.8986-3.048-3.2038v-6.46624h-1.114v-.64467c1.563-.58607 2.97-1.71912 3.986-3.06707h.762v2.65682h2.285v1.05492h-2.285v6.46624c0 .9377.371 1.348 1.113 1.348.508 0 .938-.1759 1.407-.4884zm5.979 1.7189v-.7619c-.781-.0586-1.035-.1367-1.035-.7619v-6.64204c.488-.25396 1.035-.42978 1.661-.42978 1.015 0 1.309.50792 1.309 1.36748v5.70434c0 .6252-.254.7033-1.036.7619v.7619h5.744v-.7619c-.782-.0586-1.094-.1367-1.094-.7619v-5.99737c0-2.12937-1.075-3.20382-2.95-3.20382-1.778 0-2.892 1.01584-3.634 1.95355v-6.52486h-.605l-4.083.898633v.586067l1.074.54699v11.74081c0 .6252-.313.7033-1.094.7619v.7619zm-91.3486 14.1863c0 3.0084-2.4029 4.3955-5.3332 4.3955-1.9536 0-3.6727-.5861-4.5909-1.3089l-.2148-3.3992h1.0353c.4884 2.188 1.7973 3.7704 3.7704 3.7704 1.387 0 2.2856-.6642 2.2856-1.8754 0-1.2698-.8205-1.8168-2.9889-2.4811-2.5982-.7618-4.0243-2.0316-4.0243-4.3954 0-2.7155 2.0708-4.4151 4.962-4.4151 1.7777 0 3.2624.4689 4.2197 1.1722v2.9694h-.8791c-.4493-1.9731-1.5238-3.2234-3.3406-3.2234-1.2112 0-2.0121.7033-2.0121 1.8168 0 1.2698.7814 1.7973 2.7935 2.4029 2.5983.8009 4.3174 1.8363 4.3174 4.5713zm3.3821 8.5174c1.3674 0 2.0903-.8986 2.8131-2.6177l4.4541-10.686c.1758-.4297.3321-.5665.9963-.7814v-.7619h-3.5555v.7619c1.0159.1368 1.2894.254 1.2894.6838 0 .1621-.0499.291-.1342.5091l-.0221.0574-1.934 4.962-2.0513-4.9816c-.0127-.038-.0248-.0735-.0363-.1071h-.0001c-.0592-.1728-.1003-.2926-.1003-.4398 0-.4298.2539-.547 1.2893-.6838v-.7619h-6.2513v.7619c.6837.2149.8009.3517.9963.7814l4.4541 9.4748-.3126.6837c-.3516.8205-.9182 1.1331-2.0122 1.1331-.5304 0-.911-.075-1.3387-.1592l-.0001-.0001h-.0001-.0001l-.0009-.0002-.0017-.0003c-.0596-.0118-.1202-.0237-.1821-.0356v1.387c.2735.5079.8791.8205 1.641.8205zm16.5489-7.6971c0 2.2857-1.6996 3.575-4.3369 3.575-1.6214 0-2.8717-.3907-3.7117-.9963l-.1172-2.6373h.8986c.3907 1.6019 1.4065 2.8131 2.9303 2.8131.9182 0 1.6605-.4493 1.6605-1.3284 0-.9963-.7619-1.3284-2.0903-1.7582-2.2075-.6837-3.3991-1.6019-3.3991-3.5945 0-2.188 1.68-3.4187 4.0243-3.4187 1.3284 0 2.52.3516 3.3601.8986v2.3443h-.8401c-.2344-1.2894-1.0939-2.4224-2.4614-2.4224-.8401 0-1.4066.4688-1.4066 1.2112 0 .8204.5861 1.1525 1.8754 1.6019 2.3443.7814 3.6141 1.5823 3.6141 3.7117zm4.6713 3.575c1.5628 0 2.6568-.7033 3.3992-1.9145l-.2931-.4298c-.4688.3126-.8986.4884-1.4065.4884-.7424 0-1.1136-.4103-1.1136-1.348v-6.4662h2.2857v-1.0549h-2.2857v-2.6569h-.7618c-1.0159 1.348-2.4224 2.481-3.9853 3.0671v.6447h1.1135v6.4662c0 2.3052 1.2503 3.2039 3.0476 3.2039zm13.1692-3.575c-.5274 2.1489-2.0317 3.575-4.4931 3.575-2.8913 0-5.0793-1.934-5.0793-5.216 0-3.4773 2.4029-5.7043 5.216-5.7043 2.8327 0 4.2783 1.7972 4.2783 4.2782v.4884h-6.2318c-.0391 2.3247 1.2502 3.7704 3.028 3.7704 1.2502 0 2.1684-.4493 2.9108-1.4261zm-3.1648-3.477h-3.1257c.0977-1.8168.6251-3.0476 1.6996-3.0476 1.0549 0 1.4261 1.1526 1.4261 3.0476zm9.4575 6.0947v.7619h-5.6848v-.7619c.7814-.0586 1.0939-.1367 1.0939-.7619v-6.8569l-1.0744-.6642v-.547l4.0829-1.1331h.6642l-.0781 1.9926c.7423-1.0744 1.7972-1.9926 3.5357-1.9926 1.504 0 2.442.6056 2.716 2.0317.703-1.0549 1.895-2.0317 3.575-2.0317 1.816 0 2.832 1.0549 2.832 3.1062v6.095c0 .6252.313.7033 1.075.7619v.7619h-5.666v-.7619c.782-.0586.977-.1367.977-.7619v-5.7629c0-.8401-.273-1.3284-1.172-1.3284-.586 0-1.055.2148-1.543.4493v6.642c0 .6252.195.7033.977.7619v.7619h-5.5681v-.7619c.7815-.0586.9771-.1367.9771-.7619v-5.7629c0-.8401-.2738-1.3284-1.1529-1.3284-.6056 0-1.0744.1953-1.5628.4493v6.642c0 .6252.2149.7033.9963.7619z" fill-rule="evenodd"/></g></svg>