<svg fill="none" height="24" viewBox="0 0 24 24" width="24" xmlns="http://www.w3.org/2000/svg"><path clip-rule="evenodd" d="m3 12c0-4.97056 4.02944-9 9-9 4.9706 0 9 4.02944 9 9 0 4.9706-4.0294 9-9 9-4.97056 0-9-4.0294-9-9zm9-11c-6.07513 0-11 4.92487-11 11 0 6.0751 4.92487 11 11 11 6.0751 0 11-4.9249 11-11 0-6.07513-4.9249-11-11-11zm-1.5 7c-.0019-1 .4993-2 1.4999-2s1.498 1 1.5 2c.0019 1 .0005 6-1.5 6-1.4887 0-1.4979-4.9224-1.4998-5.9759zm.5 8c0-.5523.4477-1 1-1h.01c.5523 0 1 .4477 1 1s-.4477 1-1 1h-.01c-.5523 0-1-.4477-1-1z" fill="#c34648" fill-rule="evenodd"/></svg>