<svg fill="none" height="17" viewBox="0 0 24 17" width="24" xmlns="http://www.w3.org/2000/svg"><g clip-rule="evenodd" fill-rule="evenodd"><path d="m0 2.27368c0-1.25572 1.01796-2.27368 2.27368-2.27368h19.45262c1.2557 0 2.2737 1.01796 2.2737 2.27368v12.45262c0 1.2557-1.018 2.2737-2.2737 2.2737h-19.45262c-1.25572 0-2.27368-1.018-2.27368-2.2737z" fill="#224dba"/><path d="m8.17711 11.3379h-1.4064l-1.05462-4.08002c-.05006-.18768-.15635-.3536-.31269-.4318-.39017-.19652-.82011-.35292-1.28914-.4318v-.15708h2.2656c.31268 0 .5472.23596.58628.51l.5472 2.94304 1.40572-3.45304h1.36734zm2.89139 0h-1.32827l1.09367-5.1007h1.3283zm2.8117-3.68735c.0391-.27472.2736-.4318.5472-.4318.4299-.03944.8983.03944 1.2891.23528l.2346-1.0982c-.3909-.15708-.8208-.23596-1.211-.23596-1.2892 0-2.2272.70652-2.2272 1.68708 0 .74596.6644 1.13764 1.1335 1.3736.5074.23528.7028.39236.6637.62764 0 .35291-.3908.51001-.781.51001-.469 0-.938-.1176-1.3673-.3142l-.2345 1.0989c.469.1959.9764.2747 1.4455.2747 1.4455.0388 2.3437-.667 2.3437-1.72649 0-1.33416-1.8363-1.41236-1.8363-2.00056zm6.4851 3.68735-1.0547-5.1007h-1.1328c-.2345 0-.469.15708-.5472.39236l-1.9529 4.70834h1.3673l.273-.7453h1.68l.1563.7453zm-1.9918-3.72712.3901 1.92236h-1.0937z" fill="#fff"/></g></svg>